<?xml version="1.0" encoding="utf-8"?>
<!-- Generator: Adobe Illustrator 26.0.0, SVG Export Plug-In . SVG Version: 6.00 Build 0)  -->
<svg version="1.1" id="Layer_1" xmlns="http://www.w3.org/2000/svg" xmlns:xlink="http://www.w3.org/1999/xlink" x="0px" y="0px"
	 viewBox="0 0 2870.7 490.9" style="enable-background:new 0 0 2870.7 490.9;" xml:space="preserve">
<style type="text/css">
	.st0{clip-path:url(#SVGID_00000065793919946907497990000015119021209786979715_);fill:#10942A;}
	.st1{fill:none;}
	.st2{fill:#10942A;}
	.st3{font-family:'Calibri';}
	.st4{font-size:400px;}
</style>
<g>
	<g>
		<g>
			<defs>
				<path id="SVGID_1_" d="M11.3,147.3h40.8V191H11.3V147.3z M71.7,229.1h65.2V299H71.7V229.1z M212.2,186.2h103.2V306H203.7V193.7
					l-49.9-51.6H79.7V53.8H162v80.5L212.2,186.2z M203.7,16.4h66c59,0,112.5,25.8,151.3,67.4c38.8,41.6,62.9,99,62.9,162.2
					c0,63.2-24.1,120.6-62.9,162.2s-92.4,67.4-151.3,67.4h-66v-82.6h66c37.7,0,72-16.6,96.9-43.2s40.3-63.4,40.3-103.8
					s-15.5-77.2-40.3-103.8C341.7,115.6,307.4,99,269.7,99h-66L203.7,16.4L203.7,16.4z"/>
			</defs>
			<clipPath id="SVGID_00000049207203073227626440000007999477305471183526_">
				<use xlink:href="#SVGID_1_"  style="overflow:visible;"/>
			</clipPath>
			
				<rect x="11.3" y="16.4" style="clip-path:url(#SVGID_00000049207203073227626440000007999477305471183526_);fill:#10942A;" width="472.6" height="459.3"/>
		</g>
	</g>
</g>
<rect x="522.6" y="80" class="st1" width="3012.3" height="451.4"/>
<text transform="matrix(1 0 0 1 522.6083 351.2408)" class="st2 st3 st4">DOM PREDICT</text>
</svg>
