<!-- (c) Carrd Inc. All rights reserved. -->
<svg xmlns="http://www.w3.org/2000/svg" id="icon">
<path d="M19.8,34.2c-0.3,0-0.3-0.1-0.4-0.1L6.6,21.4c-0.1-0.1-0.1-0.1-0.1-0.4c0-0.3,0.1-0.3,0.1-0.4l1.5-1.5 C8.2,19.1,8.2,19,8.5,19s0.3,0.1,0.4,0.1l9.2,9.2V5.9c0-0.1,0-0.2,0-0.2c0,0,0,0,0,0c0.1-0.1,0.2-0.1,0.4-0.1H21 c0.2,0,0.4,0.1,0.5,0.1c0,0,0,0.1,0,0.2v22.4l9.2-9.2c0.1-0.1,0.1-0.1,0.4-0.1c0.3,0,0.3,0.1,0.4,0.1l1.5,1.5 c0.1,0.1,0.1,0.1,0.1,0.4c0,0.3-0.1,0.3-0.1,0.4L20.2,34.1C20.1,34.1,20.1,34.2,19.8,34.2z"/>
</svg>