<!-- (c) Carrd Inc. All rights reserved. -->
<svg xmlns="http://www.w3.org/2000/svg" id="icon">
<path d="M19.8,5.6c0.3,0,0.3,0.1,0.4,0.1L33,18.4c0.1,0.1,0.1,0.1,0.1,0.4c0,0.3-0.1,0.3-0.1,0.4l-1.5,1.5c-0.1,0.1-0.1,0.1-0.4,0.1 s-0.3-0.1-0.4-0.1l-9.2-9.2v22.4c0,0.1,0,0.2,0,0.2c0,0,0,0,0,0c-0.1,0.1-0.2,0.1-0.4,0.1h-2.5c-0.2,0-0.4-0.1-0.5-0.1 c0,0,0-0.1,0-0.2V11.5l-9.2,9.2c-0.1,0.1-0.1,0.1-0.4,0.1c-0.3,0-0.3-0.1-0.4-0.1l-1.5-1.5c-0.1-0.1-0.1-0.1-0.1-0.4 c0-0.3,0.1-0.3,0.1-0.4L19.4,5.7C19.5,5.7,19.5,5.6,19.8,5.6z"/>
</svg>